<mxfile host="65bd71144e">
    <diagram id="q1xK6-N9ovuT_ffrh0Af" name="Page-1">
        <mxGraphModel dx="1130" dy="792" grid="1" gridSize="10" guides="1" tooltips="1" connect="1" arrows="1" fold="1" page="1" pageScale="1" pageWidth="850" pageHeight="1100" math="0" shadow="0">
            <root>
                <mxCell id="0"/>
                <mxCell id="1" parent="0"/>
                <mxCell id="2" value="G" style="strokeWidth=2;html=1;shape=mxgraph.flowchart.start_2;whiteSpace=wrap;" vertex="1" parent="1">
                    <mxGeometry x="100" y="470" width="100" height="100" as="geometry"/>
                </mxCell>
                <mxCell id="3" value="H" style="strokeWidth=2;html=1;shape=mxgraph.flowchart.start_2;whiteSpace=wrap;" vertex="1" parent="1">
                    <mxGeometry x="450" y="460" width="100" height="100" as="geometry"/>
                </mxCell>
                <mxCell id="4" value="E" style="strokeWidth=2;html=1;shape=mxgraph.flowchart.start_2;whiteSpace=wrap;" vertex="1" parent="1">
                    <mxGeometry x="450" y="300" width="100" height="100" as="geometry"/>
                </mxCell>
                <mxCell id="5" value="D" style="strokeWidth=2;html=1;shape=mxgraph.flowchart.start_2;whiteSpace=wrap;" vertex="1" parent="1">
                    <mxGeometry x="280" y="310" width="100" height="100" as="geometry"/>
                </mxCell>
                <mxCell id="6" value="C" style="strokeWidth=2;html=1;shape=mxgraph.flowchart.start_2;whiteSpace=wrap;" vertex="1" parent="1">
                    <mxGeometry x="100" y="310" width="100" height="100" as="geometry"/>
                </mxCell>
                <mxCell id="7" value="A" style="strokeWidth=2;html=1;shape=mxgraph.flowchart.start_2;whiteSpace=wrap;" vertex="1" parent="1">
                    <mxGeometry x="100" y="150" width="100" height="100" as="geometry"/>
                </mxCell>
                <mxCell id="8" value="B" style="strokeWidth=2;html=1;shape=mxgraph.flowchart.start_2;whiteSpace=wrap;" vertex="1" parent="1">
                    <mxGeometry x="440" y="130" width="100" height="100" as="geometry"/>
                </mxCell>
                <mxCell id="9" value="F" style="strokeWidth=2;html=1;shape=mxgraph.flowchart.start_2;whiteSpace=wrap;" vertex="1" parent="1">
                    <mxGeometry x="650" y="300" width="100" height="100" as="geometry"/>
                </mxCell>
            </root>
        </mxGraphModel>
    </diagram>
</mxfile>